#!OML:ASF E:\motion texture\Top Level 1\Subject 1\Session 1\male.ASF
:FULLY-SPECIFIED
:DEGREES
239
root -1.62788 17.6172 5.96142 126.576 -78.7538 -117.137
lowerback -2.18807 1.43025 7.69607
upperback -3.3415 1.77026 2.75158
thorax -2.08409 0.68858 -1.45215
lowerneck -11.8611 -3.68011 -6.03459
upperneck 14.1796 -4.31403 2.20253
head 6.44666 -2.25912 1.29294
rclavicle 1.17159e-014 5.06901e-014
rhumerus -21.1515 8.77884 -88.2172
rradius 26.7109
rwrist 9.29481
rhand -12.3024 -24.732
rfingers 7.12502
rthumb 13.7656 -54.2566
lclavicle 1.17159e-014 5.06901e-014
lhumerus -30.1394 25.7344 75.8005
lradius 16.5749
lwrist -43.8511
lhand -15.6797 26.3889
lfingers 7.12502
lthumb 10.5091 56.1062
rfemur 1.55651 4.26116 35.4339
rtibia 18.9269
rfoot -16.4677 -13.0873
rtoes -5.56733
lfemur -33.2461 -2.47286 -2.11254
ltibia 14.4934
lfoot -2.72223 8.37774
ltoes -13.5446
240
root -1.7942 17.6022 5.97062 126.86 -78.7677 -117.494
lowerback -2.05479 1.41123 7.6216
upperback -3.28904 1.75952 2.71097
thorax -2.10579 0.686643 -1.45578
lowerneck -11.965 -3.68319 -5.96984
upperneck 14.2356 -4.33473 2.26921
head 6.48302 -2.2597 1.29992
rclavicle 4.2894e-015 -2.22639e-014
rhumerus -21.6328 6.19549 -87.5028
rradius 24.0858
rwrist 11.1223
rhand -12.0516 -25.066
rfingers 7.12502
rthumb 14.0072 -54.5741
lclavicle 4.2894e-015 -2.22639e-014
lhumerus -32.299 30.7855 72.0906
lradius 14.6039
lwrist -50.2438
lhand -14.5384 26.5952
lfingers 7.12502
lthumb 11.6099 56.2536
rfemur 1.72189 4.40774 35.3337
rtibia 19.8736
rfoot -16.5559 -13.1488
rtoes -7.00032
lfemur -33.4707 -2.41248 -2.43923
ltibia 15.8641
lfoot -1.79716 8.20219
ltoes -13.5691
241
root -1.96319 17.5901 5.97994 127.359 -78.8364 -118.09
lowerback -1.90886 1.39132 7.46138
upperback -3.22128 1.74939 2.65366
thorax -2.12008 0.687982 -1.42937
lowerneck -12.1003 -3.69301 -5.91603
upperneck 14.2996 -4.36467 2.35996
head 6.52858 -2.26297 1.31495
rclavicle -2.49102e-015 3.86636e-014
rhumerus -22.2076 3.31959 -86.5571
rradius 21.6647
rwrist 13.2634
rhand -11.762 -25.362
rfingers 7.12502
rthumb 14.2863 -54.8505
lclavicle -2.49102e-015 3.86636e-014
lhumerus -35.2099 35.7106 67.6584
lradius 13.0949
lwrist -56.8408
lhand -13.1352 26.5965
lfingers 7.12502
lthumb 12.9629 56.1738
rfemur 1.84964 4.5516 35.1562
rtibia 20.9328
rfoot -16.5652 -13.2222
rtoes -8.43595
lfemur -33.625 -2.40884 -2.83452
ltibia 17.1769
lfoot -0.937338 7.87704
ltoes -13.3749
242
root -2.13444 17.5821 5.98909 128.103 -78.9802 -118.952
lowerback -1.75788 1.36784 7.19639
upperback -3.13564 1.73523 2.57302
thorax -2.12066 0.690907 -1.36901
lowerneck -12.2759 -3.70972 -5.87839
upperneck 14.3671 -4.40432 2.48637
head 6.5838 -2.26819 1.34245
rclavicle 8.23403e-015 1.59028e-015
rhumerus -22.8993 0.169221 -85.3585
rradius 19.4825
rwrist 15.7243
rhand -11.4482 -25.5934
rfingers 7.12502
rthumb 14.5887 -55.0604
lclavicle 8.23403e-015 1.59028e-015
lhumerus -38.6874 39.837 62.8714
lradius 12.0498
lwrist -62.9135
lhand -11.5446 26.3558
lfingers 7.12502
lthumb 14.4958 55.8295
rfemur 1.918 4.66605 34.8732
rtibia 22.1164
rfoot -16.4745 -13.2928
rtoes -9.8394
lfemur -33.7118 -2.44507 -3.32508
ltibia 18.407
lfoot -0.2331 7.34962
ltoes -12.7896
243
root -2.30782 17.5786 5.99797 129.086 -79.1958 -120.061
lowerback -1.61317 1.34125 6.83529
upperback -3.03696 1.71601 2.46991
thorax -2.10613 0.694303 -1.27815
lowerneck -12.48 -3.73417 -5.85667
upperneck 14.4306 -4.45495 2.64436
head 6.64432 -2.27629 1.38121
rclavicle -1.85056e-014 1.33186e-014
rhumerus -23.7444 -3.20722 -83.8916
rradius 17.5613
rwrist 18.4787
rhand -11.1511 -25.7361
rfingers 7.12502
rthumb 14.8749 -55.1821
lclavicle -1.85056e-014 1.33186e-014
lhumerus -42.1371 42.4823 58.5517
lradius 11.4278
lwrist -67.5729
lhand -9.70723 25.9553
lfingers 7.12502
lthumb 16.2656 55.2931
rfemur 1.90346 4.71492 34.4784
rtibia 23.4301
rfoot -16.2558 -13.336
rtoes -11.1908
lfemur -33.735 -2.50079 -3.90912
ltibia 19.5406
lfoot 0.262951 6.67168
ltoes -11.7523
244
root -2.48313 17.5802 6.00661 130.206 -79.4548 -121.309
lowerback -1.47757 1.31512 6.42322
upperback -2.93121 1.69567 2.35155
thorax -2.08005 0.698448 -1.17412
lowerneck -12.692 -3.76509 -5.85418
upperneck 14.4775 -4.51626 2.83948
head 6.70285 -2.28689 1.43395
rclavicle -1.01256e-014 3.97569e-016
rhumerus -24.7871 -6.70727 -82.1563
rradius 15.9325
rwrist 21.4438
rhand -10.8521 -25.7787
rfingers 7.12502
rthumb 15.163 -55.2032
lclavicle -1.01256e-014 3.97569e-016
lhumerus -44.8363 43.3823 55.5662
lradius 11.1474
lwrist -70.3014
lhand -7.66101 25.3789
lfingers 7.12502
lthumb 18.235 54.5442
rfemur 1.78462 4.66537 33.9992
rtibia 24.8856
rfoot -15.8896 -13.3232
rtoes -12.4536
lfemur -33.6877 -2.55857 -4.54904
ltibia 20.5772
lfoot 0.530015 5.96853
ltoes -10.3806
245
root -2.66029 17.5866 6.01533 131.291 -79.7178 -122.515
lowerback -1.3562 1.29204 6.02384
upperback -2.82349 1.67672 2.23063
thorax -2.04362 0.702719 -1.07901
lowerneck -12.8954 -3.80158 -5.8713
upperneck 14.5029 -4.58732 3.06809
head 6.75484 -2.30005 1.49997
rclavicle 4.65902e-015 -1.17283e-014
rhumerus -26.0596 -10.1434 -80.1897
rradius 14.6112
rwrist 24.4236
rhand -10.535 -25.7381
rfingers 7.12502
rthumb 15.4684 -55.1392
lclavicle 4.65902e-015 -1.17283e-014
lhumerus -46.3228 42.5628 54.4743
lradius 11.1454
lwrist -70.8592
lhand -5.41795 24.6845
lfingers 7.12502
lthumb 20.3918 53.6338
rfemur 1.54298 4.48607 33.4808
rtibia 26.4964
rfoot -15.3497 -13.2293
rtoes -13.5921
lfemur -33.5706 -2.58844 -5.19526
ltibia 21.5331
lfoot 0.599142 5.32065
ltoes -8.87681
246
root -2.83901 17.5974 6.02449 132.151 -79.9385 -123.488
lowerback -1.24836 1.27618 5.70117
upperback -2.71677 1.66466 2.12492
thorax -1.99901 0.708242 -1.01015
lowerneck -13.0803 -3.84357 -5.9019
upperneck 14.5047 -4.66655 3.31142
head 6.79739 -2.31644 1.57252
rclavicle -2.98177e-016 -5.36719e-015
rhumerus -27.5605 -13.2813 -78.0647
rradius 13.6008
rwrist 27.1959
rhand -10.161 -25.6322
rfingers 7.12502
rthumb 15.8286 -55.0052
lclavicle -2.98177e-016 -5.36719e-015
lhumerus -46.7574 40.3837 55.0917
lradius 11.3787
lwrist -69.5183
lhand -3.03693 23.8918
lfingers 7.12502
lthumb 22.6785 52.5792
rfemur 1.16523 4.16978 32.9797
rtibia 28.2705
rfoot -14.6076 -13.0448
rtoes -14.5468
lfemur -33.378 -2.56096 -5.78394
ltibia 22.4122
lfoot 0.531779 4.76709
ltoes -7.39813
247
root -3.01871 17.6119 6.03458 132.671 -80.0958 -124.109
lowerback -1.15001 1.26851 5.49387
upperback -2.61202 1.66136 2.04068
thorax -1.94864 0.715197 -0.982871
lowerneck -13.2291 -3.88634 -5.91673
upperneck 14.4699 -4.74799 3.53474
head 6.82144 -2.33476 1.63655
rclavicle 5.96354e-016 5.76476e-015
rhumerus -29.2463 -15.8957 -75.8992
rradius 12.8838
rwrist 29.547
rhand -9.72426 -25.4538
rfingers 7.12502
rthumb 16.2492 -54.7929
lclavicle 5.96354e-016 5.76476e-015
lhumerus -46.6535 37.3256 56.782
lradius 11.8112
lwrist -66.8454
lhand -0.667895 22.9853
lfingers 7.12502
lthumb 24.9505 51.3764
rfemur 0.63985 3.72263 32.5238
rtibia 30.2133
rfoot -13.6294 -12.7793
rtoes -15.2595
lfemur -33.1056 -2.47861 -6.27994
ltibia 23.214
lfoot 0.354545 4.32242
ltoes -6.01691
248
root -3.19884 17.6294 6.04589 132.855 -80.188 -124.386
lowerback -1.0545 1.26899 5.40199
upperback -2.51119 1.66773 1.97985
thorax -1.89822 0.724122 -0.995536
lowerneck -13.3569 -3.92999 -5.91346
upperneck 14.4184 -4.83044 3.72988
head 6.83561 -2.35511 1.68879
rclavicle -9.80257e-015 -9.93923e-015
rhumerus -31.0444 -17.794 -73.841
rradius 12.4324
rwrist 31.2727
rhand -9.23404 -25.2095
rfingers 7.12502
rthumb 16.7211 -54.5094
lclavicle -9.80257e-015 -9.93923e-015
lhumerus -46.4531 33.8045 58.9764
lradius 12.4209
lwrist -63.3392
lhand 1.58321 22.004
lfingers 7.12502
lthumb 27.1059 50.0779
rfemur -0.0363949 3.16775 32.1155
rtibia 32.31
rfoot -12.3719 -12.4691
rtoes -15.6836
lfemur -32.7479 -2.34374 -6.68308
ltibia 23.9174
lfoot 0.0929639 3.93562
ltoes -4.81851
249
root -3.37882 17.6493 6.05851 132.855 -80.2379 -124.474
lowerback -0.969794 1.27615 5.3832
upperback -2.40905 1.68148 1.93826
thorax -1.8388 0.735287 -1.02875
lowerneck -13.4784 -3.97311 -5.9109
upperneck 14.3705 -4.91114 3.9154
head 6.84973 -2.37561 1.73826
rclavicle -7.52897e-015 -1.37161e-014
rhumerus -32.8557 -18.8865 -72.0305
rradius 12.2062
rwrist 32.2506
rhand -8.7099 -24.9089
rfingers 7.12502
rthumb 17.2257 -54.1654
lclavicle -7.52897e-015 -1.37161e-014
lhumerus -46.426 30.2072 61.2583
lradius 13.1824
lwrist -59.4428
lhand 3.58644 21.0045
lfingers 7.12502
lthumb 29.0208 48.7647
rfemur -0.860908 2.5392 31.7234
rtibia 34.5315
rfoot -10.7606 -12.1873
rtoes -15.5298
lfemur -32.2981 -2.18307 -7.02381
ltibia 24.4945
lfoot -0.231663 3.55214
ltoes -3.67366
250
root -3.55793 17.671 6.07242 132.87 -80.2751 -124.58
lowerback -0.890088 1.28962 5.387
upperback -2.3053 1.70294 1.90417
thorax -1.77416 0.749949 -1.06668
lowerneck -13.5962 -4.01578 -5.91181
upperneck 14.3342 -4.99169 4.10179
head 6.86727 -2.39632 1.78858
rclavicle -5.34234e-016 -3.18055e-014
rhumerus -34.6109 -19.216 -70.5534
rradius 12.1644
rwrist 32.4912
rhand -8.17856 -24.5512
rfingers 7.12502
rthumb 17.737 -53.7622
lclavicle -5.34234e-016 -3.18055e-014
lhumerus -46.6627 26.7508 63.4298
lradius 14.0726
lwrist -55.4089
lhand 5.2731 20.0577
lfingers 7.12502
lthumb 30.6304 47.529
rfemur -1.81718 1.87172 31.309
rtibia 36.834
rfoot -8.69294 -12.0054
rtoes -14.5828
lfemur -31.7488 -2.02452 -7.34804
ltibia 24.9189
lfoot -0.591563 3.14708
ltoes -2.55725
251
root -3.73548 17.694 6.08731 133.084 -80.3409 -124.89
lowerback -0.810761 1.30515 5.35259
upperback -2.20186 1.72716 1.86689
thorax -1.71034 0.766667 -1.08664
lowerneck -13.7219 -4.05978 -5.92974
upperneck 14.3244 -5.0742 4.30343
head 6.89586 -2.41762 1.84616
rclavicle -9.31803e-016 1.98785e-014
rhumerus -36.2798 -18.9299 -69.4121
rradius 12.2672
rwrist 32.1086
rhand -7.65356 -24.1236
rfingers 7.12502
rthumb 18.2422 -53.2882
lclavicle -9.31803e-016 1.98785e-014
lhumerus -47.1683 23.5668 65.406
lradius 15.0712
lwrist -51.4074
lhand 6.65493 19.2352
lfingers 7.12502
lthumb 31.9472 46.4517
rfemur -2.88433 1.19239 30.8304
rtibia 39.1688
rfoot -6.1741 -11.9497
rtoes -12.7415
lfemur -31.1123 -1.89623 -7.71296
ltibia 25.1919
lfoot -0.974025 2.75421
ltoes -1.5185
252
root -3.91086 17.7178 6.10274 133.637 -80.4551 -125.55
lowerback -0.722684 1.3208 5.24114
upperback -2.10441 1.75251 1.8198
thorax -1.6593 0.784905 -1.07412
lowerneck -13.8399 -4.10293 -5.96654
upperneck 14.3399 -5.15771 4.52764
head 6.93268 -2.43873 1.91404
rclavicle -8.98258e-015 -2.24627e-014
rhumerus -37.8693 -18.1991 -68.5629
rradius 12.4838
rwrist 31.2676
rhand -7.14816 -23.6485
rfingers 7.12502
rthumb 18.7283 -52.7669
lclavicle -8.98258e-015 -2.24627e-014
lhumerus -47.9214 20.7081 67.1603
lradius 16.1625
lwrist -47.5433
lhand 7.70575 18.5627
lfingers 7.12502
lthumb 32.9472 45.5741
rfemur -4.03083 0.533491 30.2719
rtibia 41.4954
rfoot -3.28262 -12.0025
rtoes -10.0984
lfemur -30.3963 -1.8146 -8.15056
ltibia 25.3299
lfoot -1.3816 2.44198
ltoes -0.668656
